<svg width="1366" height="1068" viewBox="0 0 1366 1068" fill="none" xmlns="http://www.w3.org/2000/svg">
  <defs>
    <radialGradient id="bg" cx="50%" cy="48%" r="70%">
      <stop offset="0%" stop-color="#092A55"/>
      <stop offset="58%" stop-color="#061A38"/>
      <stop offset="100%" stop-color="#020B1D"/>
    </radialGradient>
    <linearGradient id="cyan" x1="345" y1="120" x2="900" y2="930" gradientUnits="userSpaceOnUse">
      <stop stop-color="#22F5F6"/>
      <stop offset="1" stop-color="#1B82FF"/>
    </linearGradient>
    <linearGradient id="bubble" x1="914" y1="480" x2="1160" y2="768" gradientUnits="userSpaceOnUse">
      <stop stop-color="#4767FF"/>
      <stop offset="1" stop-color="#156DFF"/>
    </linearGradient>
    <filter id="softShadow" x="-20%" y="-20%" width="140%" height="140%">
      <feDropShadow dx="0" dy="14" stdDeviation="14" flood-color="#000000" flood-opacity="0.45"/>
    </filter>
  </defs>

  <rect width="1366" height="1068" fill="url(#bg)"/>
  <text x="92" y="385" fill="#FFFFFF" font-family="Arial Rounded MT Bold, Avenir Next Heavy, Arial Black, Arial, sans-serif" font-size="330" font-weight="900">S</text>
  <text x="323" y="385" fill="#21E6EA" font-family="Arial Rounded MT Bold, Avenir Next Heavy, Arial Black, Arial, sans-serif" font-size="330" font-weight="900">ON</text>
  <text x="840" y="385" fill="#FFFFFF" font-family="Arial Rounded MT Bold, Avenir Next Heavy, Arial Black, Arial, sans-serif" font-size="330" font-weight="900">DA</text>

  <g filter="url(#softShadow)">
    <path d="M660 445C498 445 366 577 366 739C366 901 498 1033 660 1033C728 1033 792 1010 842 972L920 1001C939 1008 958 989 951 970L922 894C942 849 954 797 954 739C954 577 822 445 660 445Z" stroke="url(#cyan)" stroke-width="42" fill="#06152E"/>
    <rect x="472" y="646" width="376" height="246" rx="123" fill="#FFFFFF"/>
    <rect x="536" y="708" width="248" height="123" rx="61.5" fill="#071632"/>
    <circle cx="596" cy="770" r="27" fill="#21E6EA"/>
    <circle cx="724" cy="770" r="27" fill="#21E6EA"/>
    <rect x="438" y="740" width="52" height="88" rx="24" fill="#FFFFFF"/>
    <rect x="830" y="740" width="52" height="88" rx="24" fill="#FFFFFF"/>
    <line x1="660" y1="642" x2="660" y2="567" stroke="#FFFFFF" stroke-width="26" stroke-linecap="round"/>
    <circle cx="660" cy="559" r="35" fill="#FFFFFF"/>
  </g>

  <g filter="url(#softShadow)">
    <path d="M905 482H1127C1174 482 1212 520 1212 567V671C1212 718 1174 756 1127 756H1016L921 820V756H905C858 756 820 718 820 671V567C820 520 858 482 905 482Z" fill="url(#bubble)"/>
    <text x="919" y="631" fill="#FFFFFF" font-family="Arial Rounded MT Bold, Avenir Next Heavy, Arial Black, Arial, sans-serif" font-size="102" font-weight="900">IA</text>
    <text x="911" y="704" fill="#FFFFFF" font-family="Arial Rounded MT Bold, Avenir Next Heavy, Arial Black, Arial, sans-serif" font-size="56" font-weight="900">CHAT</text>
  </g>
</svg>
